PathFileType	4	(X/Y/Z)	 s04c0303.trc
DataRate	CameraRate	NumFrames	NumMarkers	Units	OrigDataRate	OrigDataStartFrame	OrigNumFrames
200	200	6	50	mm	200	251	2000
Frame#	Time	racr			lacr			c7			jug			rlel			rdr			llel			ldr			s2			lic			ric			lasi			rasi			rpsi			lpsi			rgt			lgt			rth1			rth2			rth3			rth4			rlfc			rmfc			rsh1			rsh2			rsh3			rsh4			rlmal			rmmal			rcal			rtoe			rmt5			lth1			lth2			lth4			lth3			llfc			lmfc			lsh1			lsh2			lsh3			lsh4			llmal			lmmal			lcal			ltoe			lmt5			SBIKE			LBIKE			RBIKE			
		X1	Y1	Z1	X2	Y2	Z2	X3	Y3	Z3	X4	Y4	Z4	X5	Y5	Z5	X6	Y6	Z6	X7	Y7	Z7	X8	Y8	Z8	X9	Y9	Z9	X10	Y10	Z10	X11	Y11	Z11	X12	Y12	Z12	X13	Y13	Z13	X14	Y14	Z14	X15	Y15	Z15	X16	Y16	Z16	X17	Y17	Z17	X18	Y18	Z18	X19	Y19	Z19	X20	Y20	Z20	X21	Y21	Z21	X22	Y22	Z22	X23	Y23	Z23	X24	Y24	Z24	X25	Y25	Z25	X26	Y26	Z26	X27	Y27	Z27	X28	Y28	Z28	X29	Y29	Z29	X30	Y30	Z30	X31	Y31	Z31	X32	Y32	Z32	X33	Y33	Z33	X34	Y34	Z34	X35	Y35	Z35	X36	Y36	Z36	X37	Y37	Z37	X38	Y38	Z38	X39	Y39	Z39	X40	Y40	Z40	X41	Y41	Z41	X42	Y42	Z42	X43	Y43	Z43	X44	Y44	Z44	X45	Y45	Z45	X46	Y46	Z46	X47	Y47	Z47	X48	Y48	Z48	X49	Y49	Z49	X50	Y50	Z50	
251	1.2550	719.879219	1440.910169	-96.437358	729.092337	1421.873990	-394.582123	720.299340	1503.176544	-246.853990	691.970910	1351.546317	-245.406922	548.111835	1166.764135	5.680730	702.635468	930.129770	-74.916244	621.175105	1172.906299	-538.472128	706.930813	908.822519	-452.135527	150.376205	1318.337982	-329.833755	329.071425	1275.574529	-449.839236	271.825715	1331.759874	-145.295332	349.638176	1223.206296	-393.383802	315.232430	1273.274816	-175.860426	174.607954	1365.745515	-287.647144	194.186919	1354.146499	-366.393427	224.496067	1289.780807	-125.881533	273.892663	1192.994896	-476.734063	330.817845	1165.701364	-99.869219	405.373441	1117.685418	-100.155527	446.562450	1042.766594	-99.367685	429.903868	1140.979437	-117.365614	533.555091	921.899461	-115.399654	517.710983	901.045919	-227.956794	466.274819	814.656725	-92.655156	439.173743	728.493109	-107.715922	372.896888	674.178470	-115.602710	467.497982	714.720892	-129.526002	298.753248	544.084879	-122.834945	322.997764	543.960617	-206.873440	224.592885	536.209792	-162.692316	501.893483	422.232753	-139.988026	428.601032	423.077557	-87.413180	297.564938	1103.820027	-477.971068	339.598656	1028.270640	-469.780460	370.101123	1037.305370	-453.148982	340.460051	939.563201	-474.778001	345.355557	769.616670	-461.110824	356.721053	738.015282	-347.564495	287.775247	650.487752	-480.390300	260.948076	570.646090	-458.058910	197.293983	508.795983	-458.188811	284.262523	560.359284	-427.761351	114.075736	379.311807	-451.787584	118.847321	388.212997	-362.767245	46.253859	414.886073	-408.538808	226.759513	163.798112	-402.207318	158.058370	200.375681	-465.278282	-174.971723	933.753794	-276.062587	-3.065952	87.346554	-484.259364	-14.697942	80.564583	-83.648026	
252	1.2600	721.305498	1437.510254	-95.291727	729.929888	1419.762977	-393.666330	721.918072	1500.470455	-246.257331	692.942515	1348.984092	-245.256922	545.290277	1164.689529	4.579988	701.630797	929.596256	-75.617357	619.633332	1172.286012	-538.403994	705.642065	908.423590	-452.426186	151.606079	1316.223106	-329.709802	330.249666	1273.742935	-449.999248	273.252830	1329.488574	-144.957274	350.939450	1221.255058	-393.523644	316.947031	1271.399718	-175.901990	175.732729	1363.714785	-287.254119	195.307074	1352.072971	-366.259959	226.085338	1286.839059	-125.714943	275.569688	1190.708598	-477.202314	331.955657	1161.612465	-99.759845	406.204519	1113.133792	-99.961998	446.900896	1037.997195	-99.516376	431.019481	1136.437480	-116.657444	533.685606	916.837244	-115.771155	517.515460	896.524355	-227.965552	466.425908	809.901545	-92.747851	440.132385	723.503770	-107.857462	374.429927	668.506137	-115.825580	468.739618	709.867632	-129.518820	301.577286	537.866853	-122.964060	325.864676	537.977714	-206.958601	227.700990	529.788311	-162.952196	505.301142	416.748546	-140.293010	432.186986	417.385794	-87.762932	298.808168	1101.981589	-478.351736	341.202954	1026.635212	-470.428164	371.722739	1035.734092	-453.955157	342.503166	937.955621	-475.616798	348.261183	768.667347	-461.461934	360.849263	736.851512	-348.287234	289.817879	651.085959	-481.016967	261.752597	571.757248	-458.499949	196.960626	511.077915	-458.331573	285.071305	561.056611	-428.404898	111.434619	383.854239	-451.540097	116.310522	392.778551	-362.551313	43.714982	419.757133	-408.265741	222.658485	167.599433	-402.271666	154.259696	204.834039	-465.437648	-175.186057	933.587270	-276.719486	-3.226652	86.408206	-484.072223	-14.832982	80.447460	-83.724202	
253	1.2650	722.801323	1434.120740	-94.192619	730.889479	1417.607908	-392.852919	723.680989	1497.503371	-245.659760	693.968493	1346.182744	-244.895892	542.498487	1162.745470	3.395577	700.558372	929.087195	-76.362628	618.022757	1171.626853	-538.111894	704.404333	907.985015	-452.881941	152.823033	1313.916289	-329.501468	331.490526	1271.604950	-449.995151	274.698320	1327.006090	-144.590333	352.219829	1219.115888	-393.644663	318.733673	1269.375372	-175.942692	176.984957	1361.567590	-286.850229	196.391304	1349.721214	-365.754673	227.754973	1283.631799	-125.529462	276.878364	1188.030210	-477.445445	333.032116	1157.331396	-99.606185	406.994519	1108.280292	-100.069702	447.104519	1033.008256	-99.678277	432.032934	1131.712830	-115.954899	532.103913	912.741529	-113.509032	517.563280	891.868666	-228.544366	466.386746	805.057154	-93.498699	441.081901	718.490633	-108.054812	375.970961	662.904590	-116.116480	469.912021	705.285652	-129.431835	304.273937	531.509332	-123.189719	328.574527	532.042696	-207.272195	230.568894	523.369107	-163.483039	508.535872	411.349828	-140.831006	435.496434	411.707412	-88.231925	299.693222	1099.897383	-478.848321	342.546088	1024.746508	-471.177399	373.170833	1034.088729	-454.980889	344.177759	936.030741	-476.275082	351.488846	767.751992	-461.861154	365.518255	735.758353	-349.275685	292.197705	651.579484	-481.689755	262.750317	572.867942	-458.880972	196.885008	513.285219	-458.255095	286.035301	561.739124	-428.978310	108.841949	388.564577	-451.410636	113.837132	397.502477	-362.481596	41.177267	424.675297	-407.939295	218.756341	171.740280	-402.443092	150.667301	209.577971	-465.680168	-175.373587	933.349344	-278.055585	-3.337550	86.001556	-484.245210	-14.990956	80.432578	-83.872502	
254	1.2700	724.299666	1430.807439	-93.207776	731.830913	1415.373548	-392.092104	725.449789	1494.661568	-245.029094	694.949034	1343.520008	-244.591510	539.793289	1161.037679	2.186795	699.624967	928.826567	-77.153606	616.329104	1170.930052	-537.623099	703.527260	907.406152	-453.162387	154.015283	1311.532556	-329.299206	332.764063	1269.371505	-450.082182	276.309740	1324.696847	-143.500961	353.639651	1216.841754	-393.535853	321.052211	1267.760607	-175.158045	178.306735	1359.224300	-286.260657	197.450916	1347.251989	-365.145011	229.230199	1280.283445	-125.369851	277.859812	1185.120584	-477.599452	334.216808	1152.945085	-99.504636	407.591746	1103.302562	-99.837278	447.229856	1027.748676	-99.866232	433.076309	1126.734326	-115.471752	531.362011	908.343908	-112.873096	517.306194	887.494874	-228.763111	466.415468	800.416826	-93.111171	441.885393	713.590627	-108.217787	377.377271	657.293382	-116.512314	470.917827	700.521702	-129.480892	306.831399	525.054666	-123.734943	330.835433	525.863760	-207.482049	232.730974	517.176215	-163.766428	511.551380	405.875927	-141.245131	438.483833	406.068546	-88.675282	300.344286	1097.541435	-479.321616	343.762429	1022.755513	-472.018537	374.512351	1032.315829	-456.200147	345.987970	934.042063	-477.133960	355.199585	766.950239	-462.462884	370.643234	734.613888	-350.198767	294.789455	652.056307	-482.459099	263.880442	574.032760	-459.362514	196.898977	515.761965	-458.368046	287.060008	562.490949	-429.463877	106.342856	393.678204	-451.433694	111.363690	402.624289	-362.604117	38.839229	430.307701	-408.065393	215.118027	176.407848	-402.730673	147.167661	214.414441	-465.923221	-175.599845	933.118637	-279.279224	-3.450691	85.630679	-484.451675	-15.082172	80.340316	-84.031578	
255	1.2750	725.756032	1427.547274	-92.369039	732.893252	1413.272308	-391.474608	727.133098	1491.710153	-244.125579	696.099718	1340.699047	-244.036806	537.250666	1159.493728	0.921170	698.905804	928.742201	-78.063215	614.649203	1170.108119	-536.938633	703.050068	907.080373	-453.568956	155.250752	1308.961107	-328.966857	334.045234	1267.169665	-450.006672	277.594589	1322.056761	-143.101096	355.114464	1214.579935	-393.738051	322.827235	1265.592674	-174.946457	179.716084	1356.426076	-285.949443	198.495581	1344.742169	-364.480106	230.553653	1276.761092	-125.270869	278.464773	1182.018166	-477.579961	335.111296	1148.574255	-99.323936	408.113473	1098.461590	-99.615913	447.187829	1022.579123	-99.978584	433.879650	1121.913416	-114.938284	531.321795	902.951755	-114.482229	516.950228	883.079801	-228.948462	466.354516	795.501745	-93.271383	442.585716	708.477469	-108.466766	378.595637	651.677732	-117.068532	471.840717	695.583997	-129.545078	309.038369	518.899020	-124.449438	333.228073	519.764350	-208.121780	235.291441	510.699188	-164.551790	514.386766	400.291511	-141.487508	441.313396	400.410727	-88.974401	300.768582	1095.024685	-479.543329	345.007844	1020.702020	-472.944996	375.872717	1030.508732	-457.502256	347.934397	931.911168	-477.965523	359.150192	766.146873	-462.940049	375.805350	733.389563	-351.214855	297.877822	652.654005	-483.527888	265.248002	575.267540	-459.752214	197.092414	518.446736	-458.622888	288.277288	563.326318	-429.977509	103.984517	398.821784	-451.662024	109.224120	407.827781	-362.887738	36.740473	435.639518	-408.272023	211.831513	181.403806	-403.121486	143.961306	219.597201	-466.318948	-175.920266	932.845187	-280.258992	-3.502528	85.465626	-484.601365	-15.145835	80.340798	-84.188951	
256	1.2800	727.229045	1424.374380	-91.601805	734.129517	1411.228172	-391.047783	728.911824	1488.906772	-243.447846	697.341231	1338.029024	-243.719458	534.871077	1158.021384	-0.378344	698.519094	928.820342	-78.915945	612.959456	1169.145779	-536.097691	702.951660	906.926230	-454.079269	156.466577	1306.113926	-328.273140	335.408095	1264.833604	-449.901763	278.863805	1319.452955	-142.675578	357.099793	1213.255173	-395.747367	324.550888	1263.417677	-174.670453	181.136704	1353.515452	-285.481170	199.562159	1342.188667	-363.539325	232.029543	1273.421075	-125.064077	278.932549	1178.993233	-477.594347	335.748840	1144.171224	-99.527611	408.541287	1093.667886	-99.456928	447.116449	1017.561124	-100.056342	434.486658	1116.996346	-114.053294	531.139805	898.199776	-114.710308	516.569233	878.655967	-228.757704	466.242400	790.427228	-93.572506	442.916037	703.156223	-108.750850	379.640338	645.938264	-117.663370	472.659671	690.699844	-129.753499	311.038054	512.799666	-125.140039	335.795370	513.541647	-208.866384	238.355932	503.890985	-165.616114	517.132277	394.741382	-141.634150	443.900886	394.735820	-89.276025	301.342762	1092.490201	-479.988694	346.442760	1018.627855	-473.971907	377.346501	1028.740261	-458.819771	350.127656	929.835865	-478.957140	363.513124	765.320903	-463.402139	381.149899	731.979614	-352.190564	301.146062	653.189292	-484.297722	266.883329	576.619861	-460.325949	197.256506	521.517956	-458.904122	289.666062	564.222433	-430.646697	101.997039	404.201425	-451.983391	107.070981	413.947176	-363.610992	35.033998	441.538175	-408.802119	208.689801	186.622889	-403.290140	140.975010	224.902826	-466.607023	-176.076416	932.725950	-280.575849	-3.554749	85.417817	-484.717499	-15.195003	80.381415	-84.309131	
